P2
4 5
100
10 20 30 40 50
10 10 30 50 100
10 20 20 40 50
50 40 30 20 10